/* XPM */
static char *_f5603a11de34ab9e192b503f084420dvG792BihTp0RT96j[] = {
/* columns rows colors chars-per-pixel */
"32 32 5 1 ",
"  c None",
". c #181010",
"X c #AD754A",
"o c #94C7B5",
"O c #FFEFFF",
/* pixels */
"                                ",
"                                ",
"                                ",
"                                ",
"                                ",
"                                ",
"                                ",
"                                ",
"                                ",
"             ...    ...         ",
"             .O......O.         ",
"             .O......O.         ",
"            ..OoOOOOoO..        ",
"            ..O......O..        ",
"           ...O......O...       ",
"           ...OoOOOOoO...       ",
"           ...X......X...       ",
"           ...X......X...       ",
"            ..oooooooo..        ",
"            ..o......o..        ",
"             ..........         ",
"               ......           ",
"                                ",
"                                ",
"                                ",
"                                ",
"                                ",
"                                ",
"                                ",
"                                ",
"                                ",
"                                "
};
