/* XPM */
static char *_dfdb573a67b40c782e3c74b52dd6ad01AMVN4cM1R7sOG9p[] = {
/* columns rows colors chars-per-pixel */
"32 32 3 1 ",
"  c #40B080",
". c #70C0A0",
"X c #A0D0C0",
/* pixels */
"XX.............. XX.............",
".......XX................X......",
"...........XX...............XX..",
".......  ..XX............ ..XX..",
".. ........... .X.. ........... ",
"................................",
". ........ ...X... ........ ...X",
"..... ...XX........... ...XX....",
"................X...............",
"..XX...............XX...........",
"..XX............ ..XX...........",
"..... .XX.. .......... ..X.. ...",
"................................",
". ...X.... ....... ...X.... ....",
"XX............ ..XX............ ",
"XX.............. XX.............",
".......XX................X......",
"...........XX...............XX..",
".......  ..XX............ ..XX..",
".. ........... .X.. ........... ",
"................................",
". ........ ...X... ........ ...X",
"..... ...XX........... ...XX....",
".......  XX.............. XX....",
"..XX...............XX...........",
"..XX............ ..XX...........",
"..... .XX.. .......... ..X.. ...",
"................................",
". ...X.... ....... ...X.... ....",
"XX............ ..XX............ ",
"XX.............. XX.............",
".......XX................X......"
};
