/* XPM */
static char *f3074949925040f1987ea0d6dba25be33DyAogrdE122Xi79[] = {
/* columns rows colors chars-per-pixel */
"32 32 6 1 ",
"  c #385000",
". c #388830",
"X c #19A068",
"o c #40B080",
"O c #70C0A0",
"+ c #A0D0C0",
/* pixels */
"...XooOOOOOOOOoOOOOOOOoOOOOoX...",
"OOOOOOOOOOOOXXOOOOOOOOOOOOOOOXXO",
"OXX XOOOOOXX++XOOOXX XOOOOOXX++X",
"OX++O OOOX+++XOOOOX++O OOOX+++XO",
"OO OOX   OO+ XOOOOO OOX   OO+ XO",
"XX  XXX  XX  XXOOXX  XXXX XX  XX",
"++OX X XXX X+++ X++OX X  XX X+++",
"XOOOX  XX OO++ OXXOOOX   X OO++ ",
"X  XXXX  XXX  XOOX  XXXXX XXX  X",
"     X   X    XXX     X   X    X",
"X OXX X   XXOO OXX OXX XX  XXOO ",
" +OOX XXX XOOOO O +OOX XXX XOOOO",
"XO+  XOOOX XX  XOXO+  XOOOX XX  ",
"     OXOOO    XXO     OXXOO    X",
"OX  X  OO X  XXOOOX  X   O X  XX",
"OOOOOO   XXOOOOOOOOOOOO   XXOOOO",
"OOOOOOOOOOOOXXOOOOOOOOOOOOOOOXXO",
"OXX XOOOOOXX++XOOOXX XOOOOOXX++X",
"OX++O OOOX+++XOOOOX++O OOOX+++XO",
"OO OOX   OO+ XOOOOO OOX   OO+ XO",
"XX  XXX  XX  XXOOXX  XXXX XX  XX",
"++OX X XXX X+++ X++OX X  XX X+++",
"XOOOX  XX OO++ OXXOOOX   X OO++ ",
" OOXX  XX XO+XOOO OOXX   X XO+XO",
"     X   X    XXX     X   X    X",
"X OXX X   XXOO OXX OXX XX  XXOO ",
" +OOX XXX XOOOO O +OOX XXX XOOOO",
"XO+  XOOOX XX  XOXO+  XOOOX XX  ",
"     OXOOO    XXO     OXXOO    X",
"OX  X  OO X  XXOOOX  X   O X  XX",
"OOOOOO   XXOOOOOOOOOOOO   XXOOOO",
"OOoOOO+OOOOoOOOOOOOoOOO++OOOoOOO"
};
