/* XPM */
static char *f734082a42f144cdaf555e03654baa517HR5i22wc3WvkSjQ[] = {
/* columns rows colors chars-per-pixel */
"32 32 14 1 ",
"  c None",
". c black",
"X c #10213A",
"o c #3A4A7B",
"O c #7B4242",
"+ c #C54242",
"@ c #FF635A",
"# c #4A9452",
"$ c #73CE73",
"% c #DE9473",
"& c #FFC594",
"* c #FFD6B5",
"= c #DEE6EF",
"- c #F8F8F8",
/* pixels */
"                                ",
"                                ",
"                                ",
"                                ",
"                  o             ",
"                 o-o            ",
"             oooo--oo           ",
"            o--======o          ",
"           o=----===o           ",
"           .$=$$$$=$.           ",
"          .##=-$$-=##.          ",
"          .o#$----$#o.          ",
"         O&.********.&O         ",
"         O&O**X**X**O&O         ",
"          O%%&X&&X&%%O          ",
"           O%%%&&%%%O           ",
"           ..O%%%%O..           ",
"          .&XX....XX&.          ",
"         O@*.XX++XX.*@O         ",
"         O++O+XXXX+O++X         ",
"          ...O+XX+O..X          ",
"           ...OOOO...           ",
"           .O......O.           ",
"           .+$O..O$+.           ",
"            ...  ...            ",
"                                ",
"                                ",
"                                ",
"                                ",
"                                ",
"                                ",
"                                "
};
