/* XPM */
static char *be0a2f48f02f4b16e53bfc51c103eb713ctrA32P4uPsWVhF[] = {
/* columns rows colors chars-per-pixel */
"32 32 4 1 ",
"  c None",
". c black",
"X c #D50000",
"o c gray98",
/* pixels */
"                                ",
"                                ",
"                                ",
"                                ",
"                                ",
"                                ",
"                                ",
"                                ",
"                                ",
"                                ",
"              ....              ",
"            ..XXXX..            ",
"           .XXXXXXXX.           ",
"          .XXXXXXXXXX.          ",
"          .XXXXXXXXXX.          ",
"         .XXXXX..XXXXX.         ",
"         .XXXX.oo.XXXX.         ",
"         ......oo......         ",
"         .ooooo..ooooo.         ",
"          .oooooooooo.          ",
"          .oooooooooo.          ",
"           .oooooooo.           ",
"            ..oooo..            ",
"              ....              ",
"                                ",
"                                ",
"                                ",
"                                ",
"                                ",
"                                ",
"                                ",
"                                "
};
