/* XPM */
static char *c7df62a016434a81efd84133d8a1c667Ux2xU2QyjiZWQyRH[] = {
/* columns rows colors chars-per-pixel */
"32 32 7 1 ",
"  c None",
". c #403830",
"X c #385000",
"o c #685858",
"O c #388830",
"+ c #80C060",
"@ c #B0F880",
/* pixels */
"           XOOOooOOOX           ",
"           O@@+OO+@@OX          ",
"         OOOO@@+O@@OOOO         ",
"       OOO++O+@+X@+O++OOO       ",
"      @@@@OO++OX@O@+OO@@@@      ",
"      O@@@@OO+O@+O+OO@@@@O      ",
"     OOOO@@O+XO@+OX+O@@OOOO     ",
"    O++OOOO+@@+XX+@@+OOOO++O    ",
"   X++@@@O@@@+O@@+O@@@O@@@++X   ",
"  X@XX+OOO++OO@@@@OOOXOOO+XX+X  ",
" X+++XX+++OOO+O@@O+OO++++XX+++X ",
" XOOOX+@@@O++OOOOOO++O@@@+XOOOX ",
" O++X+@@@@X@@XO++OX@@X@@@@+X++O ",
"O+++XX@@@X@@@X+@@+X@@@X@@@XX+++ ",
"X++XOOXXXX@@X@@@@@@X@@XXXXOOX++ ",
" XX++OOOOOXXOX@@@@XOXXOOOOO++XX ",
"X+X++OOOOOOOOOX@@XOOOOOOOOO++X+ ",
"++X+O++++XO+OOOXXOOO+OX++++O+X++",
"+OXX+++XX++++OXOOXO++++XX+++XXO+",
"XX+OXXXXX+++OXOOOOXO+++XXXXXO+XX",
" X+OOOOXXX++OXO++OXO++XXXOOOO+X ",
" X++OOXXXXXXXO++++OXXXXXXXOO++X ",
"  XXOXXOOOOXOXX++XXOXOOOOXXOXX  ",
"   XOXOOOOXOOXOXXOXOOXOOOOOXX   ",
"    XOOXXOOOXOOOOOOXOOOXXOXX    ",
"    OXXXXXOOXOOOOOOXOOXXXXX     ",
"     OXXXXXXOOOXXOOOOOXXXXO     ",
"    OXXXXXXX.XOXoOX.XXXXXXXO    ",
"    OXXXXXX..oooooo.XXXXXXXO    ",
"    OXXXXXXX.oooooo.XXXXXXXO    ",
"     OXXXXXXX..oo..XXXXXXXO     ",
"      OOOXXXXXX..XXXXXXOOO      "
};
